<?xml version="1.0" encoding="UTF-8"?>
<svg width="658px" height="88px" viewBox="0 0 658 88" version="1.1" xmlns="http://www.w3.org/2000/svg" xmlns:xlink="http://www.w3.org/1999/xlink">
    <title>GOODSTARVENTURES</title>
    <g id="Page-1" stroke="none" stroke-width="1" fill="none" fill-rule="evenodd">
        <g id="Artboard" transform="translate(-5.000000, 0.000000)" fill="#7E7E7E" fill-rule="nonzero">
            <path d="M29.372,88.792 C34.52,88.792 38.612,84.568 38.612,79.42 L38.612,44.572 L22.904,44.572 L22.904,52.756 L29.636,52.756 L29.636,80.74 L14.852,80.74 L14.852,8.272 L28.448,8.272 L28.448,23.32 L38.084,23.32 L38.084,9.592 C38.084,4.444 33.992,0.22 28.844,0.22 L14.588,0.22 C9.44,0.22 5.216,4.444 5.216,9.592 L5.216,79.42 C5.216,84.568 9.44,88.792 14.588,88.792 L29.372,88.792 Z M71.744,88.792 C76.892,88.792 81.116,84.568 81.116,79.42 L81.116,9.592 C81.116,4.444 76.892,0.22 71.744,0.22 L57.488,0.22 C52.34,0.22 48.116,4.444 48.116,9.592 L48.116,79.42 C48.116,84.568 52.34,88.792 57.488,88.792 L71.744,88.792 Z M71.48,80.74 L57.884,80.74 L57.884,8.272 L71.48,8.272 L71.48,80.74 Z M114.776,88.792 C119.924,88.792 124.148,84.568 124.148,79.42 L124.148,9.592 C124.148,4.444 119.924,0.22 114.776,0.22 L100.52,0.22 C95.372,0.22 91.148,4.444 91.148,9.592 L91.148,79.42 C91.148,84.568 95.372,88.792 100.52,88.792 L114.776,88.792 Z M114.512,80.74 L100.916,80.74 L100.916,8.272 L114.512,8.272 L114.512,80.74 Z M157.412,88 C162.56,88 166.784,83.776 166.784,78.628 L166.784,10.384 C166.784,5.236 162.56,1.012 157.412,1.012 L134.708,1.012 L134.708,88 L157.412,88 Z M157.148,79.948 L144.344,79.948 L144.344,9.064 L157.148,9.064 L157.148,79.948 Z M197.276,88.792 C202.556,88.792 206.648,84.568 206.648,79.42 L206.648,63.712 C206.648,63.712 206.78,60.808 204.932,57.64 L185.66,24.376 L185.66,8.272 L197.012,8.272 L197.012,21.868 L206.648,21.868 L206.648,9.592 C206.648,4.444 202.556,0.22 197.276,0.22 L185.396,0.22 C180.248,0.22 176.024,4.444 176.024,9.592 L176.024,23.452 L176.024,23.4581929 L176.024841,23.5067346 C176.034935,23.9386036 176.166154,26.8535385 177.872,29.656 L197.012,62.92 L197.012,80.74 L185.66,80.74 L185.66,67.144 L176.024,67.144 L176.024,79.42 C176.024,84.568 180.248,88.792 185.396,88.792 L197.276,88.792 Z M232.784,88 L232.784,9.196 L243.212,9.196 L243.212,1.012 L212.588,1.012 L212.588,9.196 L223.016,9.196 L223.016,88 L232.784,88 Z M258.524,88 L258.524,53.02 L271.724,53.02 L271.724,88 L281.492,88 L281.492,10.384 C281.492,5.236 277.268,1.012 272.12,1.012 L258.26,1.012 C253.112,1.012 248.888,5.236 248.888,10.384 L248.888,88 L258.524,88 Z M271.724,44.968 L258.524,44.968 L258.524,9.064 L271.724,9.064 L271.724,44.968 Z M301.952,88 L301.952,53.02 L309.608,53.02 L316.076,88 L326.108,88 L318.98,51.964 C322.016,50.38 324.128,47.212 324.128,43.516 L324.128,10.384 C324.128,5.236 319.904,1.012 314.756,1.012 L292.316,1.012 L292.316,88 L301.952,88 Z M314.492,45.364 L301.952,45.364 L301.952,9.196 L314.492,9.196 L314.492,45.364 Z M377.588,88 L389.864,1.012 L380.096,1.012 L371.252,74.14 L362.276,1.012 L352.64,1.012 L365.18,88 L377.588,88 Z M424.844,88 L424.844,79.948 L407.156,79.948 L407.156,48.532 L421.94,48.532 L421.94,40.348 L407.156,40.348 L407.156,9.064 L424.844,9.064 L424.844,1.012 L397.52,1.012 L397.52,88 L424.844,88 Z M442.664,88 L442.664,9.196 L456.92,9.196 L456.92,88 L466.82,88 L466.82,10.384 C466.82,5.236 462.596,1.012 457.448,1.012 L450.32,1.012 C446.096,1.012 443.984,2.596 442.664,5.896 L442.664,1.012 L433.028,1.012 L433.028,88 L442.664,88 Z M494.276,88 L494.276,9.196 L504.704,9.196 L504.704,1.012 L474.08,1.012 L474.08,9.196 L484.508,9.196 L484.508,88 L494.276,88 Z M535.46,88 C540.608,88 544.832,83.776 544.832,78.628 L544.832,1.012 L535.196,1.012 L535.196,79.948 L521.6,79.948 L521.6,1.012 L511.964,1.012 L511.964,78.628 C511.964,83.776 516.056,88 521.204,88 L535.46,88 Z M565.292,88 L565.292,53.02 L572.948,53.02 L579.416,88 L589.448,88 L582.32,51.964 C585.356,50.38 587.468,47.212 587.468,43.516 L587.468,10.384 C587.468,5.236 583.244,1.012 578.096,1.012 L555.656,1.012 L555.656,88 L565.292,88 Z M577.832,45.364 L565.292,45.364 L565.292,9.196 L577.832,9.196 L577.832,45.364 Z M624.956,88 L624.956,79.948 L607.268,79.948 L607.268,48.532 L622.052,48.532 L622.052,40.348 L607.268,40.348 L607.268,9.064 L624.956,9.064 L624.956,1.012 L597.632,1.012 L597.632,88 L624.956,88 Z M653.072,88.792 C658.352,88.792 662.444,84.568 662.444,79.42 L662.444,63.712 C662.444,63.712 662.576,60.808 660.728,57.64 L641.456,24.376 L641.456,8.272 L652.808,8.272 L652.808,21.868 L662.444,21.868 L662.444,9.592 C662.444,4.444 658.352,0.22 653.072,0.22 L641.192,0.22 C636.044,0.22 631.82,4.444 631.82,9.592 L631.82,23.452 L631.82,23.4581929 L631.820841,23.5067346 C631.830935,23.9386036 631.962154,26.8535385 633.668,29.656 L652.808,62.92 L652.808,80.74 L641.456,80.74 L641.456,67.144 L631.82,67.144 L631.82,79.42 C631.82,84.568 636.044,88.792 641.192,88.792 L653.072,88.792 Z" id="GOODSTARVENTURES"></path>
        </g>
    </g>
</svg>